<?xml version="1.0" encoding="UTF-8"?>
<svg id="_レイヤー_2" data-name="レイヤー 2" xmlns="http://www.w3.org/2000/svg" viewBox="0 0 500 200">
  <defs>
    <style>
      .cls-1 {
        stroke-width: .89px;
      }

      .cls-1, .cls-2 {
        fill: #fff;
        stroke: #000;
        stroke-miterlimit: 10;
      }

      .cls-3 {
        fill: #000;
        stroke-width: 0px;
      }
    </style>
  </defs>
  <g id="_レイヤー_1-2" data-name="レイヤー 1">
    <g>
      <rect class="cls-1" x=".45" y=".45" width="99.82" height="99.55"/>
      <rect class="cls-1" x="100.27" y=".45" width="99.82" height="99.55"/>
      <rect class="cls-1" x="200.09" y=".45" width="99.82" height="99.55"/>
      <rect class="cls-1" x="299.91" y=".45" width="99.82" height="99.55"/>
      <rect class="cls-1" x="399.73" y=".45" width="99.82" height="99.55"/>
      <rect class="cls-1" x=".45" y="100" width="99.82" height="99.55"/>
      <rect class="cls-1" x="100.27" y="100" width="99.82" height="99.55"/>
      <rect class="cls-1" x="200.09" y="100" width="99.82" height="99.55"/>
      <rect class="cls-1" x="299.91" y="100" width="99.82" height="99.55"/>
      <rect class="cls-1" x="399.73" y="100" width="99.82" height="99.55"/>
    </g>
    <circle class="cls-2" cx="100.03" cy="98.56" r="24.72"/>
    <circle class="cls-2" cx="449.64" cy="50.22" r="24.72"/>
    <path class="cls-2" d="M98.22,111.84v-22.08c-.21.11-.49.23-.84.36-.36.12-.74.26-1.15.41-.41.15-.8.28-1.17.41-.37.12-.65.23-.86.32v-3.87c.28-.14.65-.32,1.12-.54.47-.23.97-.48,1.5-.75.53-.27,1.03-.57,1.5-.88.47-.32.83-.61,1.08-.88h4.13v27.52h-5.3Z"/>
    <path class="cls-2" d="M442.14,64.12v-3.69l6.78-10.27c.5-.77.98-1.5,1.43-2.2.45-.7.81-1.42,1.1-2.15.29-.73.43-1.52.43-2.35,0-.88-.17-1.55-.52-2.02-.34-.46-.84-.69-1.48-.69-.69,0-1.22.19-1.58.56-.37.37-.62.86-.76,1.47-.14.61-.21,1.28-.21,2v1.29h-5.19v-1.36c0-1.63.26-3.07.77-4.34.52-1.26,1.33-2.25,2.44-2.97,1.11-.71,2.57-1.07,4.39-1.07,2.45,0,4.3.63,5.54,1.9,1.24,1.27,1.86,3.04,1.86,5.32,0,1.11-.17,2.13-.52,3.07-.34.94-.8,1.84-1.36,2.71-.56.87-1.16,1.77-1.81,2.69l-5.37,7.96h8.29v4.13h-14.24Z"/>
    <g>
      <path class="cls-3" d="M281.08,131.52c2.52-1.34,5.4-2.02,8.65-2.02,3.86,0,7.36.98,10.5,2.94,3.14,1.96,5.61,4.76,7.43,8.4,1.82,3.64,2.73,7.87,2.73,12.68s-.91,9.06-2.73,12.73c-1.82,3.67-4.3,6.5-7.43,8.48-3.14,1.99-6.64,2.98-10.5,2.98-3.3,0-6.19-.66-8.65-1.97-2.46-1.32-4.4-3.07-5.8-5.25v6.55h-14.36v-62.16h14.36v21.92c1.34-2.18,3.28-3.95,5.8-5.29ZM292.8,145.09c-1.99-2.04-4.44-3.07-7.35-3.07s-5.28,1.04-7.27,3.11c-1.99,2.07-2.98,4.9-2.98,8.48s.99,6.41,2.98,8.48c1.99,2.07,4.41,3.11,7.27,3.11s5.29-1.05,7.31-3.15c2.02-2.1,3.02-4.94,3.02-8.53s-.99-6.4-2.98-8.44Z"/>
      <path class="cls-3" d="M317.83,140.85c1.82-3.64,4.3-6.44,7.43-8.4,3.14-1.96,6.64-2.94,10.5-2.94,3.3,0,6.2.67,8.7,2.02,2.49,1.34,4.41,3.11,5.75,5.29v-6.64h14.36v46.87h-14.36v-6.64c-1.4,2.18-3.35,3.95-5.84,5.29-2.49,1.34-5.39,2.02-8.69,2.02-3.81,0-7.28-.99-10.42-2.98-3.14-1.99-5.61-4.82-7.43-8.48-1.82-3.67-2.73-7.91-2.73-12.73s.91-9.04,2.73-12.68ZM347.23,145.13c-1.99-2.07-4.41-3.11-7.27-3.11s-5.28,1.02-7.27,3.07c-1.99,2.04-2.98,4.86-2.98,8.44s.99,6.43,2.98,8.53c1.99,2.1,4.41,3.15,7.27,3.15s5.28-1.04,7.27-3.11c1.99-2.07,2.98-4.9,2.98-8.48s-1-6.41-2.98-8.48Z"/>
      <path class="cls-3" d="M383.14,175.62c-3.19-1.4-5.71-3.32-7.56-5.75-1.85-2.44-2.88-5.17-3.11-8.19h14.2c.17,1.62.92,2.94,2.27,3.95,1.34,1.01,3,1.51,4.96,1.51,1.79,0,3.18-.35,4.16-1.05.98-.7,1.47-1.61,1.47-2.73,0-1.34-.7-2.34-2.1-2.98-1.4-.64-3.67-1.36-6.8-2.14-3.36-.78-6.16-1.61-8.4-2.48-2.24-.87-4.17-2.24-5.8-4.12-1.62-1.88-2.44-4.41-2.44-7.6,0-2.69.74-5.14,2.23-7.35,1.48-2.21,3.67-3.96,6.55-5.25,2.88-1.29,6.31-1.93,10.29-1.93,5.88,0,10.51,1.46,13.9,4.37,3.39,2.91,5.33,6.78,5.84,11.59h-13.27c-.22-1.62-.94-2.91-2.14-3.86-1.21-.95-2.79-1.43-4.75-1.43-1.68,0-2.97.32-3.86.97-.9.64-1.34,1.53-1.34,2.65,0,1.34.71,2.35,2.14,3.02,1.43.67,3.65,1.34,6.68,2.02,3.47.9,6.3,1.78,8.48,2.65,2.18.87,4.1,2.27,5.75,4.2,1.65,1.93,2.5,4.52,2.56,7.77,0,2.75-.77,5.2-2.31,7.35-1.54,2.16-3.75,3.85-6.64,5.08-2.89,1.23-6.23,1.85-10.04,1.85-4.09,0-7.73-.7-10.92-2.1Z"/>
      <path class="cls-3" d="M465.8,157.06h-32.51c.22,2.91,1.16,5.14,2.81,6.68,1.65,1.54,3.68,2.31,6.09,2.31,3.58,0,6.08-1.51,7.48-4.54h15.29c-.79,3.08-2.2,5.85-4.24,8.32-2.04,2.46-4.61,4.4-7.69,5.8-3.08,1.4-6.52,2.1-10.33,2.1-4.59,0-8.68-.98-12.26-2.94-3.58-1.96-6.38-4.76-8.4-8.4-2.02-3.64-3.02-7.9-3.02-12.77s.99-9.13,2.98-12.77c1.99-3.64,4.77-6.44,8.36-8.4,3.58-1.96,7.7-2.94,12.35-2.94s8.57.95,12.1,2.86c3.53,1.91,6.29,4.62,8.27,8.15,1.99,3.53,2.98,7.64,2.98,12.35,0,1.34-.08,2.75-.25,4.2ZM451.35,149.08c0-2.46-.84-4.42-2.52-5.88s-3.78-2.18-6.3-2.18-4.44.7-6.09,2.1c-1.65,1.4-2.67,3.39-3.07,5.96h17.98Z"/>
    </g>
  </g>
</svg>