<?xml version="1.0" encoding="UTF-8"?>
<svg id="_レイヤー_2" data-name="レイヤー 2" xmlns="http://www.w3.org/2000/svg" viewBox="0 0 100 100">
  <defs>
    <style>
      .cls-1 {
        fill: blue;
      }

      .cls-1, .cls-2 {
        stroke-width: 0px;
      }

      .cls-2 {
        fill: #fff;
      }
    </style>
  </defs>
  <g id="_レイヤー_1-2" data-name="レイヤー 1">
    <circle class="cls-1" cx="50" cy="50" r="50"/>
    <path class="cls-2" d="M37.79,72.96v-6.1l11.03-16.97c.82-1.27,1.6-2.48,2.32-3.64.73-1.16,1.32-2.34,1.79-3.56.47-1.21.7-2.51.7-3.89,0-1.46-.28-2.57-.84-3.33-.56-.76-1.36-1.15-2.41-1.15-1.12,0-1.98.31-2.58.92-.6.62-1.01,1.43-1.23,2.44s-.34,2.11-.34,3.3v2.13h-8.46v-2.24c0-2.69.42-5.08,1.26-7.17.84-2.09,2.16-3.72,3.98-4.9,1.81-1.18,4.19-1.76,7.14-1.76,3.99,0,7,1.05,9.02,3.14,2.02,2.09,3.02,5.02,3.02,8.79,0,1.83-.28,3.52-.84,5.07-.56,1.55-1.3,3.04-2.21,4.48-.92,1.44-1.9,2.92-2.94,4.45l-8.74,13.16h13.5v6.83h-23.18Z"/>
  </g>
</svg>